
<svg xmlns="http://www.w3.org/2000/svg" xmlns:xlink="http://www.w3.org/1999/xlink" viewBox="0 0 16 16" width="16" height="16" fill="none">
  <svg xmlns="http://www.w3.org/2000/svg" viewBox="0 0 640 512" width="16" height="16" fill="#030303" x="0" y="0" opacity="100%">
    <path d="M624 384c8.75 0 16-7.25 16-16v-32c0-8.75-7.25-16-16-16h-608C7.25 320 0 327.3 0 336v32C0 376.8 7.25 384 16 384H64v64H16C7.25 448 0 455.3 0 464v32C0 504.8 7.25 512 16 512h608c8.75 0 16-7.25 16-16v-32c0-8.75-7.25-16-16-16H576v-64H624zM288 448H128v-64h160V448zM512 448h-160v-64h160V448z"></path>
  </svg>
  <defs>
    <filter id="filter_dshadow_0_0_0_00000014" color-interpolation-filters="sRGB" filterUnits="userSpaceOnUse">
      <feFlood flood-opacity="0" result="bg-fix"></feFlood>
      <feColorMatrix in="SourceAlpha" type="matrix" values="0 0 0 0 0 0 0 0 0 0 0 0 0 0 0 0 0 0 127 0" result="alpha"></feColorMatrix>
      <feOffset dx="0" dy="0"></feOffset>
      <feGaussianBlur stdDeviation="0"></feGaussianBlur>
      <feComposite in2="alpha" operator="out"></feComposite>
      <feColorMatrix type="matrix" values="0 0 0 0 0 0 0 0 0 0 0 0 0 0 0 0 0 0 0.08 0"></feColorMatrix>
      <feBlend mode="normal" in2="bg-fix" result="bg-fix-filter_dshadow_0_0_0_00000014"></feBlend>
      <feBlend in="SourceGraphic" in2="bg-fix-filter_dshadow_0_0_0_00000014" result="shape"></feBlend>
    </filter>
  </defs>
</svg>